<svg width="80" height="80" viewBox="0 0 80 80" fill="none" xmlns="http://www.w3.org/2000/svg">
<path d="M14.0808 6.7735L40.0008 32.6935L65.8141 6.88016C66.2665 6.39866 66.8115 6.01347 67.4163 5.74769C68.0212 5.48192 68.6735 5.34104 69.3341 5.3335C70.7486 5.3335 72.1052 5.8954 73.1053 6.89559C74.1055 7.89579 74.6674 9.25234 74.6674 10.6668C74.6799 11.3207 74.5586 11.9702 74.3109 12.5755C74.0633 13.1808 73.6946 13.7292 73.2274 14.1868L47.1474 40.0002L73.2274 66.0802C74.1065 66.9401 74.6219 68.1046 74.6674 69.3335C74.6674 70.748 74.1055 72.1045 73.1053 73.1047C72.1052 74.1049 70.7486 74.6668 69.3341 74.6668C68.6544 74.695 67.9763 74.5816 67.3427 74.3337C66.7092 74.0858 66.1342 73.7088 65.6541 73.2268L40.0008 47.3068L14.1341 73.1735C13.6835 73.639 13.1451 74.0106 12.5501 74.2669C11.9551 74.5232 11.3153 74.6591 10.6675 74.6668C9.25296 74.6668 7.89641 74.1049 6.89622 73.1047C5.89602 72.1045 5.33412 70.748 5.33412 69.3335C5.32169 68.6796 5.443 68.0301 5.69063 67.4248C5.93825 66.8195 6.30696 66.2712 6.77412 65.8135L32.8541 40.0002L6.77412 13.9202C5.89511 13.0602 5.37966 11.8957 5.33412 10.6668C5.33412 9.25234 5.89602 7.89579 6.89622 6.89559C7.89641 5.8954 9.25296 5.3335 10.6675 5.3335C11.9475 5.3495 13.1741 5.86683 14.0808 6.7735Z" fill="white" fill-opacity="0.5"/>
</svg>
