<svg width="92" height="92" viewBox="0 0 92 92" fill="none" xmlns="http://www.w3.org/2000/svg">
<g clip-path="url(#clip0_220_174)">
<path fill-rule="evenodd" clip-rule="evenodd" d="M45.835 87.0865C68.6173 87.0865 87.0865 68.6173 87.0865 45.835C87.0865 23.0527 68.6173 4.58348 45.835 4.58348C23.0527 4.58348 4.5835 23.0527 4.5835 45.835C4.5835 68.6173 23.0527 87.0865 45.835 87.0865ZM45.835 91.67C71.1497 91.67 91.67 71.1497 91.67 45.835C91.67 20.5203 71.1497 -1.52588e-05 45.835 -1.52588e-05C20.5203 -1.52588e-05 0 20.5203 0 45.835C0 71.1497 20.5203 91.67 45.835 91.67Z" fill="#888888"/>
<path d="M18.3333 72.4876C18.3333 70.1202 20.1025 68.1195 22.4584 67.8582C40.1393 65.9011 51.6095 66.0775 69.2514 67.9018C70.1324 67.9943 70.9673 68.3413 71.6543 68.9006C72.3413 69.4598 72.8505 70.207 73.1198 71.0509C73.3891 71.8948 73.4068 72.7988 73.1708 73.6526C72.9347 74.5064 72.4552 75.273 71.7906 75.8587C50.9701 94.0071 39.0713 93.7573 19.8 75.8771C18.8604 75.0062 18.3333 73.7686 18.3333 72.4898V72.4876Z" fill="#888888"/>
<path fill-rule="evenodd" clip-rule="evenodd" d="M69.0168 70.1805C51.5147 68.37 40.2095 68.2004 22.7097 70.137C21.5317 70.2676 20.6265 71.2737 20.6265 72.4906C20.6265 73.146 20.8992 73.7671 21.3598 74.198C30.9118 83.0579 38.1492 87.0616 45.2238 87.0868C52.3237 87.112 59.9506 83.1404 70.2864 74.1338C70.6147 73.8415 70.8511 73.4602 70.9668 73.0361C71.0825 72.612 71.0725 72.1634 70.938 71.7449C70.8035 71.3264 70.5503 70.956 70.2093 70.6787C69.8682 70.4014 69.4539 70.2291 69.0168 70.1828V70.1805ZM22.2078 65.581C40.0743 63.6032 51.7118 63.7819 69.4911 65.6222C70.8165 65.7606 72.0727 66.2823 73.1061 67.1236C74.1394 67.9649 74.9051 69.0893 75.3092 70.359C75.7134 71.6287 75.7387 72.9888 75.3818 74.2726C75.0249 75.5565 74.3015 76.7084 73.3 77.5875C62.8153 86.727 54.0837 91.7046 45.2101 91.6703C36.3112 91.6382 27.9647 86.5757 18.2454 77.5577C17.5495 76.9095 16.9947 76.1248 16.6158 75.2525C16.2368 74.3803 16.0419 73.4393 16.043 72.4883C16.0396 70.7797 16.6668 69.1298 17.8043 67.8548C18.9419 66.5799 20.5098 65.7694 22.2078 65.5787V65.581Z" fill="#888888"/>
<path d="M64.1697 36.6682C64.1697 41.5307 62.2381 46.194 58.7998 49.6323C55.3615 53.0706 50.6982 55.0022 45.8357 55.0022C40.9732 55.0022 36.3099 53.0706 32.8716 49.6323C29.4333 46.194 27.5017 41.5307 27.5017 36.6682C27.5017 31.8057 29.4333 27.1424 32.8716 23.7041C36.3099 20.2658 40.9732 18.3342 45.8357 18.3342C50.6982 18.3342 55.3615 20.2658 58.7998 23.7041C62.2381 27.1424 64.1697 31.8057 64.1697 36.6682Z" fill="#888888"/>
<path fill-rule="evenodd" clip-rule="evenodd" d="M45.8357 50.4187C49.4826 50.4187 52.9801 48.97 55.5588 46.3913C58.1375 43.8125 59.5862 40.315 59.5862 36.6682C59.5862 33.0213 58.1375 29.5238 55.5588 26.9451C52.9801 24.3664 49.4826 22.9177 45.8357 22.9177C42.1889 22.9177 38.6914 24.3664 36.1126 26.9451C33.5339 29.5238 32.0852 33.0213 32.0852 36.6682C32.0852 40.315 33.5339 43.8125 36.1126 46.3913C38.6914 48.97 42.1889 50.4187 45.8357 50.4187ZM45.8357 55.0022C50.6982 55.0022 55.3615 53.0706 58.7998 49.6323C62.2381 46.194 64.1697 41.5307 64.1697 36.6682C64.1697 31.8057 62.2381 27.1424 58.7998 23.7041C55.3615 20.2658 50.6982 18.3342 45.8357 18.3342C40.9732 18.3342 36.3099 20.2658 32.8716 23.7041C29.4333 27.1424 27.5017 31.8057 27.5017 36.6682C27.5017 41.5307 29.4333 46.194 32.8716 49.6323C36.3099 53.0706 40.9732 55.0022 45.8357 55.0022Z" fill="#888888"/>
</g>
<defs>
<clipPath id="clip0_220_174">
<rect width="92" height="92" fill="white"/>
</clipPath>
</defs>
</svg>
